<svg width="120" height="46" viewBox="0 0 120 46" fill="none" xmlns="http://www.w3.org/2000/svg">
<path d="M116.963 29.8354C116.649 29.3164 116.322 28.9913 115.965 28.7714C117.418 28.2893 118.069 27.4497 118.069 25.9722C118.069 23.7314 116.708 22.643 113.91 22.643H109.66V33.8896H112.518C112.518 33.8896 112.518 29.6736 112.518 29.4522C112.652 29.4522 112.881 29.4522 112.881 29.4522C113.525 29.4522 113.757 29.6247 114.261 30.4857L116.247 33.8896H119.366L116.963 29.8354ZM112.518 24.8134C112.712 24.8134 113.82 24.8134 113.82 24.8134C114.932 24.8134 115.287 25.1326 115.287 26.1232C115.287 27.1075 114.891 27.4741 113.82 27.4741C113.82 27.4741 112.712 27.4741 112.518 27.4741V24.8134ZM102.58 31.6091V29.2538C102.797 29.2538 106.384 29.2538 106.384 29.2538V27.0804C106.384 27.0804 102.797 27.0804 102.58 27.0804V24.9219C102.801 24.9219 107.399 24.9219 107.399 24.9219V22.643H99.7249V33.8896H107.627L107.829 31.6091C107.829 31.6091 102.801 31.6091 102.58 31.6091ZM93.867 27.941C93.9754 27.8022 98.0495 22.643 98.0495 22.643H95.0801C95.0801 22.643 91.8025 26.9596 91.4317 27.4434C91.4317 26.8512 91.4317 22.643 91.4317 22.643H88.5767V33.8896H91.4317C91.4317 33.8896 91.4317 29.7315 91.4317 29.1332C91.8025 29.6217 95.022 33.8896 95.022 33.8896H98.4157C98.4157 33.8896 93.9754 28.0831 93.867 27.941ZM83.7412 22.643C83.7412 22.643 83.7412 28.1684 83.7412 28.7899C83.3627 28.2845 79.1406 22.643 79.1406 22.643H76.7433V33.8896H79.1665C79.1665 33.8896 79.1665 27.7152 79.1665 27.0909C79.548 27.5976 84.2614 33.8896 84.2614 33.8896H86.1642V22.643H83.7412ZM69.6616 31.6091V29.2538C69.8769 29.2538 73.4674 29.2538 73.4674 29.2538V27.0804C73.4674 27.0804 69.8769 27.0804 69.6616 27.0804V24.9219C69.8814 24.9219 74.4805 24.9219 74.4805 24.9219V22.643H66.8052V33.8896H74.711L74.9092 31.6091C74.9092 31.6091 69.8814 31.6091 69.6616 31.6091ZM61.5377 22.643C61.5377 22.643 61.5377 26.7842 61.5377 27.0054H57.5903C57.5903 26.7842 57.5903 22.643 57.5903 22.643H54.7338V33.8896H57.5903C57.5903 33.8896 57.5903 29.4766 57.5903 29.2538H61.5377C61.5377 29.4766 61.5377 33.8896 61.5377 33.8896H64.3943V22.643H61.5377ZM52.6755 31.3449C51.6194 31.7434 50.9329 31.8823 50.0432 31.8823C48.1938 31.8823 47.4736 30.881 47.4736 28.3044C47.4736 25.6163 48.174 24.6181 50.0585 24.6181C50.9329 24.6181 51.6975 24.7753 52.6129 25.1387L52.77 25.2028V22.8751L52.6953 22.846C51.8362 22.53 50.9755 22.3851 49.9838 22.3851C48.4441 22.3851 47.1333 22.8232 46.1933 23.6566C45.0169 24.6945 44.4691 26.1752 44.4691 28.3196C44.4691 30.1376 44.8415 31.4381 45.6426 32.4089C46.5764 33.5262 48.0459 34.1154 49.8938 34.1154C50.9283 34.1154 51.9216 33.9031 52.7639 33.4986L52.8295 33.4697V31.287L52.6755 31.3449ZM40.4179 27.1504C40.4194 27.1521 40.2395 27.0742 40.2395 27.0742C39.0888 26.5735 39.0431 26.555 38.7699 26.3597C38.393 26.0911 38.268 25.882 38.268 25.5325C38.268 24.9173 38.7745 24.6029 39.7769 24.6029C40.6636 24.6029 41.3121 24.7555 42.342 25.215L42.5037 25.2852V22.9346L42.4274 22.9055C41.4373 22.5407 40.6087 22.3851 39.658 22.3851C37.1006 22.3851 35.6359 23.6307 35.6359 25.8041C35.6359 27.4404 36.3652 28.3809 38.242 29.1546C40.2347 29.9942 40.424 30.2048 40.424 30.8183C40.424 31.5342 39.8289 31.8976 38.657 31.8976C37.6468 31.8976 36.8824 31.6946 35.7411 31.1236L35.5732 31.0398V33.3918L35.6402 33.4255C36.7007 33.9169 37.627 34.1154 38.8371 34.1154C41.6341 34.1154 43.1752 32.8698 43.1752 30.6062C43.1752 28.8906 42.4794 28.0191 40.4179 27.1504Z" fill="black" fill-opacity="0.54"/>
<path d="M8.71743 33.8878H3.92147V20.6235H8.71743C12.0958 20.6235 13.9055 22.7727 13.9055 27.1944C13.9055 31.0333 12.7 33.8573 8.71743 33.8878ZM10.8003 27.4708C10.8003 24.7982 10.5272 22.713 7.69201 22.713H7.05726V31.737H8.17422C9.83286 31.737 10.8003 30.3878 10.8003 27.4708ZM20.3615 33.8878H15.294V20.6235H20.6042C23.1081 20.6235 24.4647 21.669 24.4647 24.1555C24.4647 25.4453 23.4087 26.3657 22.2628 26.9488C23.862 27.4081 24.9468 28.3928 24.9468 30.0488C24.9468 32.7521 22.7145 33.8878 20.3615 33.8878ZM18.4007 25.8741H19.4873C20.5127 25.8741 21.2664 25.4149 21.2664 24.2776C21.2664 23.0185 20.3004 22.6811 19.275 22.6811H18.4007V25.8741ZM21.6281 29.9879C21.6281 28.637 20.7842 28.3302 19.5483 28.3302H18.4007V31.737H19.5176C20.6346 31.737 21.6281 31.3693 21.6281 29.9879ZM25.6716 17.125H2.86406C1.29701 17.125 0 18.3827 0 20.0099V34.4709C0 36.0979 1.29701 37.3877 2.86406 37.3877H25.6716C27.2097 37.3877 28.5082 36.0979 28.5082 34.4709V20.0099C28.5082 18.3827 27.2097 17.125 25.6716 17.125ZM26.4255 34.4709C26.4255 34.9318 26.1233 35.3013 25.6716 35.3013H2.86406C2.4124 35.3013 2.08125 34.9318 2.08125 34.4709V20.0099C2.08125 19.5488 2.4124 19.181 2.86406 19.181H25.6716C26.1233 19.181 26.4255 19.5488 26.4255 20.0099V34.4709Z" fill="black" fill-opacity="0.54"/>
</svg>
