<svg width="87" height="46" viewBox="0 0 87 46" fill="none" xmlns="http://www.w3.org/2000/svg">
<g clip-path="url(#clip0)">
<path d="M42.5202 45.1065C38.3733 44.9576 34.1132 43.9603 29.758 42.119C27.9856 41.3696 26.111 40.4413 24.2035 39.3683C22.9454 38.6606 20.0656 36.9225 19.9053 36.7741C19.8044 36.6808 19.7649 36.5932 19.7649 36.4629C19.7649 36.2217 19.9407 36.0494 20.1863 36.0498C20.3137 36.05 20.3445 36.0632 20.6452 36.2471C21.8521 36.9847 23.5215 37.8203 25.1481 38.5009C32.7239 41.6706 41.699 42.7837 50.3145 41.6219C56.1983 40.8285 61.8537 38.972 66.2654 36.3858C66.9019 36.0127 66.9606 35.9931 67.1513 36.09C67.4147 36.2238 67.4718 36.5515 67.2667 36.7519C67.186 36.8308 67.087 36.8933 65.6389 37.7799C61.7768 40.1444 58.6586 41.7055 55.4121 42.8999C51.0453 44.5064 46.6693 45.2554 42.5202 45.1065Z" fill="black" fill-opacity="0.54"/>
<path fill-rule="evenodd" clip-rule="evenodd" d="M0 18.5423C0 18.5423 0.0816582 18.7957 0.160646 19.516C0.255336 21.3101 0.260356 22.7973 0.271301 24.4556C0.293103 25.7361 0.280349 26.9839 0.269126 28.1854C0.261557 28.999 0.25585 29.4426 0.25585 30.1824C0.25585 32.3838 0.0787698 33.9268 0.0787698 33.9268C0.0787698 33.9268 1.72931 34.277 4.22062 34.277C6.71281 34.277 9.35707 33.4266 10.8829 32.1507C12.4083 30.8748 13.7811 29.0485 13.7811 25.7718C13.7811 22.4949 12.3574 20.6937 10.4761 19.5182C8.59416 18.3421 5.72102 18.1174 3.50872 18.2172C1.29695 18.3175 0.07656 18.5423 2.61e-05 18.5423H0ZM86.6519 30.8748L83.3235 30.0995C82.4502 30.9496 81.5066 31.3721 80.295 31.35C77.8002 31.305 76.5604 29.8583 76.0994 27.4726H86.8289C86.9814 26.6221 87.0315 25.7216 86.981 24.8711C86.8791 23.1534 86.3428 21.5723 85.2521 20.2185C84.1724 18.8782 82.3149 18.1753 80.0183 18.1921C77.8618 18.2082 76.0992 18.9353 74.7038 20.3938C73.3925 21.7639 72.6076 23.8533 72.6441 26.5721C72.6792 29.1549 73.3472 31.078 74.9834 32.651C76.1224 33.7461 77.6535 34.331 79.6619 34.3268C83.4888 34.2133 85.079 32.9998 86.6519 30.8748ZM83.9274 24.8214H76.2254C76.3613 22.8615 78.1852 21.0362 80.1175 21.0452C82.1175 21.0542 83.8352 22.4617 83.9274 24.8214ZM50.1535 21.1577C52.7006 21.1577 54.7662 23.4262 54.7662 26.2235C54.7662 29.0209 52.7006 31.2895 50.1535 31.2895C47.6073 31.2895 45.5414 29.0209 45.5414 26.2235C45.5414 23.4262 47.6073 21.1577 50.1535 21.1577ZM50.2527 18.125C54.5269 18.125 57.9926 21.7785 57.9926 26.2235C57.9926 30.6685 54.4277 34.2732 50.1535 34.2732C45.8802 34.2732 42.4141 30.6685 42.4141 26.2235C42.4141 21.7785 45.9794 18.125 50.2527 18.125ZM58.6634 33.7266H62.1187V23.4452C65.2803 26.1721 67.6098 29.5994 69.0082 33.7266L71.9765 33.7441V18.6422L68.6678 18.6422L68.6642 26.041C67.6284 24.3368 66.36 22.9351 65.1129 21.7267C63.8638 20.5165 62.8493 19.4918 61.5847 18.6422H58.6633L58.6634 33.7266ZM28.4778 33.7266H31.834V23.4452C34.9955 26.1721 37.276 29.5994 38.6743 33.7266H41.6745V18.6422H38.3178V25.9205C36.3676 23.156 34.0049 20.6729 31.3005 18.6422H28.4778V33.7266ZM18.8922 18.6422H22.1468C25.3071 22.0821 27.2416 27.0852 27.8934 33.7266H24.3587C24.2669 32.5731 24.1236 31.513 23.9293 30.4486H16.9519C16.7582 31.5113 16.6162 32.5713 16.5275 33.7266H13.0948C13.714 27.0452 15.7883 21.8755 18.8922 18.6422ZM23.2781 27.6231C22.5194 25.2391 21.616 23.2778 20.3934 21.469C19.1787 23.2849 18.2287 25.332 17.5572 27.6231H23.2781ZM3.5383 21.1689C3.5383 21.1689 4.22061 21.1438 5.06004 21.1438C5.89935 21.1438 7.73255 21.2939 9.07988 22.5948C10.4273 23.8957 10.4529 25.3714 10.4529 26.3973C10.4529 27.4229 10.0946 29.6491 7.88228 30.6496C5.67037 31.6505 3.5129 31.2752 3.5129 31.2752L3.5383 21.1689Z" fill="black" fill-opacity="0.54"/>
</g>
<defs>
<clipPath id="clip0">
<rect width="87" height="45" fill="white" transform="translate(0 0.125)"/>
</clipPath>
</defs>
</svg>
