<svg width="48" height="48" viewBox="0 0 48 48" fill="none" xmlns="http://www.w3.org/2000/svg">
<path fill-rule="evenodd" clip-rule="evenodd" d="M34.6955 14.5934C35.8823 14.913 36.8181 15.8487 37.1376 17.0356C37.7311 19.2039 37.7082 23.723 37.7082 23.723C37.7082 23.723 37.7082 28.2193 37.1376 30.3876C36.8181 31.5744 35.8823 32.5102 34.6955 32.8297C32.5272 33.4003 23.8541 33.4003 23.8541 33.4003C23.8541 33.4003 15.2039 33.4003 13.0128 32.8069C11.8259 32.4874 10.8901 31.5516 10.5706 30.3647C10 28.2193 10 23.7002 10 23.7002C10 23.7002 10 19.2039 10.5706 17.0356C10.8901 15.8487 11.8487 14.8901 13.0128 14.5706C15.181 14 23.8541 14 23.8541 14C23.8541 14 32.5272 14 34.6955 14.5934ZM28.3045 23.7002L21.0921 27.8541V19.5462L28.3045 23.7002Z" fill="white"/>
</svg>
