<svg width="91" height="46" viewBox="0 0 91 46" fill="none" xmlns="http://www.w3.org/2000/svg">
<path d="M89.6353 24.6031C89.417 23.6837 88.7901 22.1244 86.8519 22.1244C85.8428 22.1244 84.5884 22.5701 84.5884 23.8784C84.5884 25.4658 86.9339 26.2729 88.4629 27.1648C89.8548 27.9451 91.0004 28.7253 91.0004 30.8133C91.0004 33.2083 89.009 34.5735 85.9798 34.5735C84.7881 34.5899 83.601 34.4205 82.4595 34.071L82.2681 30.9794H82.9506C83.2234 31.9562 83.8778 33.6528 86.1706 33.6528C87.9436 33.6528 88.872 32.3445 88.872 31.3939C88.872 29.4158 85.378 28.442 83.8778 27.2998C83.4239 27.0366 83.0508 26.6497 82.8002 26.1824C82.5496 25.7151 82.4314 25.1858 82.4589 24.6538C82.4589 22.064 84.7511 21.2001 86.9883 21.2001C88.0498 21.2214 89.1043 21.3806 90.1264 21.6739L90.3166 24.5982H89.6353V24.6031Z" fill="black" fill-opacity="0.54"/>
<path d="M42.3893 25.8282C42.3893 22.5985 40.1802 21.2065 37.7235 21.2065C33.7934 21.2065 32.1831 23.4612 32.1831 27.5278C32.1831 32.2068 34.5567 34.5744 38.7871 34.5744C39.7992 34.6066 40.8097 34.4686 41.778 34.166L41.985 33.2044C41.395 33.4486 40.7615 33.5644 40.1252 33.5445C35.5676 33.5445 34.449 28.7824 34.449 26.4423H42.3887V25.8282H42.3893ZM34.4484 25.5229C34.4484 24.493 35.2937 22.126 37.3682 22.126C39.4696 22.126 39.9607 24.0473 39.9607 25.5229H34.4484Z" fill="black" fill-opacity="0.54"/>
<path d="M58.286 31.7612V25.4118C58.286 22.8208 58.0132 21.206 55.1204 21.206C52.4178 21.2054 51.1909 23.852 50.8087 24.8807H50.7536V21.2066L46.5508 21.8745V22.3477C47.3428 22.4032 48.6247 22.4869 48.6247 24.1578V31.7612C48.6247 33.5714 47.6963 33.8223 46.5508 33.8223V34.2955H52.8269V33.8223C51.6808 33.8223 50.7524 33.5714 50.7524 31.7612V28.3356C50.7524 25.6902 52.7169 22.543 54.3272 22.543C56.1277 22.543 56.154 23.6297 56.154 26.023V31.7618C56.154 33.5726 55.2268 33.8235 54.0819 33.8235V34.2961H59.5284L59.6624 33.7692C58.4893 33.6886 58.2866 33.166 58.2866 31.7612" fill="black" fill-opacity="0.54"/>
<path d="M74.983 31.6216V21.2049L70.7801 21.8765V22.349C71.5991 22.4046 72.8535 22.4882 72.8535 24.1586V28.0049C72.8535 30.5391 71.2982 33.157 69.5252 33.157C68.1069 33.157 67.3424 32.0703 67.3424 29.7589V21.2116L63.1401 21.8832V22.3557C63.9591 22.4113 65.2146 22.4949 65.2146 24.1653V30.3663C65.2146 32.9574 66.4146 34.5722 68.7074 34.5722C71.6266 34.5722 72.4449 32.1497 72.799 31.2302H72.8535V34.5722L76.7973 33.9452L76.9109 33.4201C76.0974 33.3591 74.983 33.1961 74.983 31.6216Z" fill="black" fill-opacity="0.54"/>
<path d="M10.7183 33.0462C10.4889 33.1655 10.2323 33.2199 9.97532 33.2037C9.81857 33.1772 9.67353 33.1023 9.55974 32.9891C9.44595 32.8759 9.36886 32.7299 9.33885 32.5706C9.33527 32.5138 9.33108 32.4552 9.33108 32.3991V25.4917C9.33108 22.9019 8.64855 21.063 4.9105 21.063C3.02681 21.063 0.381642 21.9824 0.381642 23.7908C0.38126 23.9626 0.415527 24.1327 0.48231 24.2905C0.549093 24.4482 0.646965 24.5903 0.769838 24.7078C0.892711 24.8253 1.03796 24.9157 1.19654 24.9735C1.35513 25.0313 1.52366 25.0551 1.69167 25.0436C1.87185 25.0436 2.05004 25.0051 2.21473 24.9306C2.37942 24.856 2.52694 24.7469 2.64776 24.6105C2.76858 24.4741 2.86 24.3133 2.91612 24.1385C2.97225 23.9638 2.99182 23.779 2.97357 23.596C2.97357 22.7047 3.19191 21.98 4.88358 21.98C7.17522 21.98 7.20274 24.0405 7.20274 25.9911V27.0497C7.19616 27.0497 7.19616 27.9655 7.20274 27.9655V29.609C7.20274 31.5016 6.05722 33.258 4.283 33.258C3.35462 33.258 2.42863 32.2812 2.42863 30.8343C2.42863 28.8257 4.52885 28.225 6.06978 28.0424L6.32819 27.1156C3.96178 27.2988 0 27.7298 0 31.2781C0.000761219 31.7079 0.0874349 32.1331 0.254718 32.5275C0.422001 32.9219 0.666376 33.2774 0.97289 33.5721C1.2794 33.8668 1.64161 34.0946 2.03736 34.2415C2.4331 34.3884 2.85405 34.4514 3.27446 34.4266C4.03756 34.4655 4.79724 34.2985 5.47707 33.9426C6.15689 33.5867 6.73289 33.0543 7.14711 32.3991H7.20094C7.20094 33.5059 7.59814 34.3014 8.90697 34.4138C9.0144 34.4325 9.12365 34.4381 9.23238 34.4302H9.24673C9.30745 34.4305 9.36788 34.4219 9.42619 34.4046C9.98025 34.2008 10.5103 33.9346 11.0066 33.6109L11.1639 32.7648C11.0285 32.8812 10.8767 32.9761 10.7135 33.0462" fill="black" fill-opacity="0.54"/>
<path d="M23.9357 32.0676H20.7156C19.8417 32.0676 18.4772 32.0676 18.4772 30.9522C18.4952 30.4899 18.6687 30.0479 18.9683 29.7007C19.7578 30.0167 20.6038 30.1588 21.4508 30.1176C24.7247 30.1176 26.4444 28.5303 26.4444 25.7177C26.4834 25.1037 26.3941 24.4882 26.1825 23.9121C25.9709 23.336 25.6418 22.8123 25.217 22.3757C24.2425 21.6228 23.0552 21.2126 21.833 21.2066C19.2411 21.2035 16.6761 21.9868 16.6761 25.5797C16.6761 27.9467 17.6332 28.7818 18.2583 29.3112C17.9592 29.6451 17.0846 30.7037 17.0846 31.7337C17.0758 32.1231 17.1714 32.5076 17.3612 32.8456C17.551 33.1836 17.8277 33.4622 18.1614 33.6513C18.5273 33.8772 18.9402 34.0121 19.3667 34.0451H23.9901C25.3534 34.0451 26.5025 34.5189 26.5025 35.9377C26.5025 37.9426 24.2102 39.2522 21.7272 39.2522C19.3524 39.2522 17.9054 37.8321 17.9054 36.1886C17.8943 35.8669 17.9557 35.5468 18.0847 35.2531C18.2136 34.9593 18.4069 34.6995 18.6495 34.4938L17.6033 34.0848C17.1565 34.3359 16.7841 34.7051 16.5253 35.1537C16.2665 35.6023 16.1307 36.1137 16.1323 36.6343C16.1323 39.1374 18.9163 40.1716 21.5896 40.1716C25.2188 40.1716 28.2749 38.3883 28.2749 35.2136C28.2749 32.1226 25.2451 32.0676 23.9357 32.0676ZM21.507 22.126C23.4715 22.126 24.1815 23.7964 24.1815 25.8849C24.1815 27.3606 23.8824 29.1994 21.589 29.1994C19.6239 29.1994 18.9414 27.4723 18.9414 25.3568C18.9414 23.7408 19.3518 22.126 21.507 22.126Z" fill="black" fill-opacity="0.54"/>
</svg>
