<svg width="103" height="46" viewBox="0 0 103 46" fill="none" xmlns="http://www.w3.org/2000/svg">
<path d="M102.128 27.7514C102.013 27.7521 101.899 27.73 101.793 27.6864C101.687 27.6428 101.59 27.5786 101.509 27.4975C101.428 27.4163 101.364 27.3199 101.32 27.2138C101.277 27.1076 101.255 26.9939 101.255 26.8792C101.255 26.4076 101.641 26.007 102.128 26.007C102.599 26.007 103 26.3931 103 26.8792C102.996 27.1093 102.903 27.3289 102.74 27.4917C102.577 27.6544 102.358 27.7476 102.128 27.7514ZM102.128 26.1788C101.942 26.1793 101.764 26.2533 101.633 26.3845C101.502 26.5157 101.428 26.6936 101.427 26.8792C101.428 27.0648 101.502 27.2426 101.633 27.3739C101.764 27.5051 101.942 27.5791 102.128 27.5796C102.313 27.5791 102.491 27.5051 102.622 27.3739C102.753 27.2426 102.827 27.0648 102.828 26.8792C102.827 26.6936 102.753 26.5157 102.622 26.3845C102.491 26.2533 102.313 26.1793 102.128 26.1788ZM102.571 27.3367H102.37L102.199 27.0076H101.97V27.3367H101.784V26.3787H102.242C102.442 26.3787 102.571 26.5071 102.571 26.6933C102.572 26.756 102.553 26.8174 102.517 26.8687C102.481 26.9201 102.43 26.9587 102.37 26.9791L102.571 27.3404L102.571 27.3367ZM102.228 26.8362C102.299 26.8362 102.37 26.7933 102.37 26.6933C102.37 26.5789 102.313 26.5504 102.228 26.5504H101.942V26.8362H102.228ZM17.3742 33.9419H11.2732V25.9211H13.5037V31.9972H17.3783L17.3742 33.9419ZM19.6762 29.953V29.9249C19.6762 27.6229 21.5346 25.7505 24.0083 25.7505C26.482 25.7505 28.3119 27.5948 28.3119 29.8968V29.9249C28.3119 32.2268 26.4535 34.0992 23.9798 34.0992C21.5061 34.0992 19.6762 32.2549 19.6762 29.953ZM26.0525 29.953V29.9249C26.0525 28.7669 25.2233 27.7654 23.9934 27.7654C22.778 27.7654 21.9632 28.752 21.9632 29.91V29.9381C21.9632 31.0961 22.7925 32.0975 24.0079 32.0975C25.2373 32.0975 26.0525 31.1109 26.0525 29.953ZM31.0417 30.4246V25.9211H33.3007V30.3816C33.3007 31.5396 33.8867 32.0835 34.7737 32.0835C35.6608 32.0835 36.2468 31.5545 36.2468 30.4394V25.9211H38.5058V30.3672C38.5058 32.9549 37.0327 34.084 34.7456 34.084C32.4722 34.084 31.0425 32.94 31.0425 30.4234L31.0417 30.4246ZM41.9079 25.9199H44.9961C47.8556 25.9199 49.5285 27.5639 49.5285 29.8803V29.9084C49.5285 32.2244 47.8415 33.9403 44.9536 33.9403H41.9083V25.9211L41.9079 25.9199ZM45.0387 31.9675C46.3684 31.9675 47.2543 31.2382 47.2543 29.9373V29.9092C47.2543 28.6224 46.368 27.879 45.0387 27.879H44.138V31.9538H45.0387V31.9675ZM54.9753 29.2369H58.7784V31.0812H54.9753V33.9407H52.7596V25.9211H59.1789V27.8654H54.9757L54.9753 29.2369ZM68.3718 33.9411H62.2708V25.9211H64.4864V31.9972H68.3758L68.3718 33.9411ZM74.1766 25.8637H76.3211L79.7381 33.9415H77.3499L76.7639 32.5118H73.6756L73.1037 33.9415H70.7732L74.1766 25.8637ZM76.1353 30.7818L75.249 28.5128L74.3483 30.7862H76.1353V30.7818ZM82.5975 25.9211H86.3866C87.616 25.9211 88.4597 26.2358 89.0028 26.7933C89.4744 27.2509 89.7172 27.865 89.7172 28.6661V28.6942C89.7172 29.9237 89.059 30.7389 88.0732 31.1535L89.989 33.9559H87.4153L85.7998 31.5256H84.8276V33.9559H82.5971V25.9211H82.5975ZM86.2902 29.7671C87.048 29.7671 87.4767 29.3954 87.4767 28.8239V28.7958C87.4767 28.1668 87.0191 27.8525 86.2758 27.8525H84.8176V29.7683H86.2906L86.2902 29.7671ZM95.1259 29.0238H98.9719V30.7818H95.1259V32.0542H99.4295V33.9415H92.9243V25.9211H99.3725V27.8084H95.1259V29.0238ZM6.4081 30.897C6.09342 31.5974 5.43596 32.0979 4.5778 32.0979C3.36242 32.0979 2.53317 31.0824 2.53317 29.9385V29.9104C2.53317 28.7524 3.34797 27.7658 4.56335 27.7658C5.4785 27.7658 6.17891 28.3237 6.4647 29.0956H8.80957C8.43789 27.1798 6.75048 25.7641 4.5778 25.7641C2.10449 25.7633 0.246094 27.637 0.246094 29.9385V29.9666C0.246094 32.2685 2.07639 34.1129 4.54971 34.1129C6.66579 34.1129 8.3243 32.7401 8.75297 30.9098L6.4081 30.8954V30.897Z" fill="black" fill-opacity="0.54"/>
<path d="M85.5717 20.8885C85.8719 19.8589 85.7575 18.9153 85.257 18.2153C84.7994 17.5719 84.0276 17.1998 83.0976 17.1573L65.4978 16.9285C65.4442 16.9289 65.3914 16.916 65.344 16.8911C65.2966 16.8662 65.2561 16.8299 65.2261 16.7856C65.1691 16.6997 65.1546 16.5849 65.1831 16.4709C65.2401 16.2995 65.4119 16.1707 65.5977 16.1562L83.3549 15.9274C85.4565 15.8271 87.744 14.126 88.5447 12.038L89.5602 9.38891C89.6032 9.27452 89.6172 9.16013 89.5883 9.04573C88.4456 3.87473 83.8273 0.0146484 78.3087 0.0146484C73.2192 0.0146484 68.9011 3.30317 67.357 7.86366C66.3564 7.12031 65.0836 6.71973 63.7113 6.84817C61.2668 7.09141 59.3081 9.04975 59.0649 11.4946C59.0079 12.1235 59.0504 12.7388 59.1933 13.3104C55.2044 13.4248 52.0166 16.6844 52.0166 20.7019C52.0166 21.0631 52.0447 21.4163 52.088 21.7735C52.1161 21.9449 52.2594 22.0738 52.4312 22.0738H84.9142C85.1001 22.0738 85.2755 21.9453 85.3289 21.7591L85.5721 20.8869L85.5717 20.8885Z" fill="black" fill-opacity="0.54"/>
<path d="M91.1765 9.57947L90.6908 9.59392C90.5764 9.59392 90.4764 9.67981 90.4339 9.79461L89.7516 12.1828C89.4513 13.2124 89.5657 14.156 90.0662 14.856C90.5238 15.4994 91.2957 15.8715 92.2257 15.9141L95.9714 16.1429C96.0249 16.1424 96.0778 16.1553 96.1252 16.1802C96.1726 16.2051 96.2131 16.2414 96.2431 16.2857C96.3001 16.3716 96.3145 16.5001 96.286 16.6004C96.229 16.7718 96.0573 16.9007 95.8714 16.9151L91.9684 17.1439C89.8523 17.2442 87.5793 18.9453 86.7785 21.0333L86.4927 21.7626C86.4357 21.9055 86.5357 22.0484 86.6934 22.0484H100.104C100.261 22.0484 100.404 21.948 100.447 21.7915C100.676 20.9622 100.808 20.0896 100.808 19.1893C100.808 13.8991 96.4904 9.58147 91.1861 9.58147" fill="black" fill-opacity="0.54"/>
</svg>
