<svg xmlns="http://www.w3.org/2000/svg" viewBox="0 0 718 487"><defs><style>.cls-1,.cls-15,.cls-16,.cls-17,.cls-18,.cls-20,.cls-23,.cls-24,.cls-3,.cls-6,.cls-9{fill:none;}.cls-10,.cls-19,.cls-2{fill:#121212;}.cls-2,.cls-20{stroke:#333;}.cls-10,.cls-17,.cls-18,.cls-2,.cls-20,.cls-22,.cls-23,.cls-3,.cls-6,.cls-9{stroke-linecap:round;stroke-linejoin:round;}.cls-10,.cls-15,.cls-16,.cls-17,.cls-18,.cls-2,.cls-20,.cls-22,.cls-23,.cls-3,.cls-9{stroke-width:2px;}.cls-3{stroke:#d9d9d9;}.cls-4{fill:#dff5e3;}.cls-22,.cls-5{fill:#d9d9d9;}.cls-17,.cls-6{stroke:#9e9e9e;}.cls-6{stroke-width:4px;}.cls-7{fill:#9e9e9e;}.cls-12,.cls-8{fill:#34b151;}.cls-10,.cls-15,.cls-16,.cls-22,.cls-24,.cls-9{stroke:#000;}.cls-11{fill:#333;}.cls-12,.cls-13,.cls-15{fill-rule:evenodd;}.cls-13,.cls-14{fill:#fff;}.cls-15,.cls-16,.cls-24{stroke-miterlimit:10;}.cls-18{stroke:#757575;}.cls-21{fill:#757575;}.cls-23{stroke:#34b151;}</style></defs><title>privacy-dark</title><g id="container"><rect class="cls-1" width="718" height="487"/></g><g id="article"><rect class="cls-2" x="28.45" y="203.2" width="52.19" height="36.82" rx="4.31"/><line class="cls-3" x1="48.56" y1="215.95" x2="73.2" y2="215.95"/><path class="cls-4" d="M41.29,210.59c-1.36-.78-1.47-1.65-1.47-1.65s-.12.87-1.47,1.65a5.75,5.75,0,0,1-2.45.47,7.69,7.69,0,0,0,3.92,6.56,7.69,7.69,0,0,0,3.92-6.56A5.75,5.75,0,0,1,41.29,210.59Z"/><line class="cls-3" x1="35.9" y1="223.84" x2="52.09" y2="223.84"/><line class="cls-3" x1="57.21" y1="223.84" x2="73.31" y2="223.84"/><line class="cls-3" x1="35.9" y1="231.07" x2="57.21" y2="231.07"/><line class="cls-3" x1="61.95" y1="231.07" x2="72.38" y2="231.07"/></g><g id="plant_blackground" data-name="plant blackground"><path class="cls-5" d="M623.73,370.7H687a2,2,0,0,1,2,2v20.48a22.38,22.38,0,0,1-22.38,22.38H644.11a22.38,22.38,0,0,1-22.38-22.38V372.7A2,2,0,0,1,623.73,370.7Z"/></g><g id="plant_stoke" data-name="plant stoke"><line class="cls-6" x1="622.83" y1="385.55" x2="666.58" y2="385.55"/><line class="cls-6" x1="623.62" y1="398.18" x2="666.58" y2="398.18"/></g><g id="shadow_plant" data-name="shadow plant"><path class="cls-7" d="M642,415.56h26c4.29,0,21-5,21-19V383.71c-1.34,5.88-4.93,13.11-14,21.19A42.89,42.89,0,0,1,642,415.56Z"/><rect x="629.43" y="416.33" width="51.87" height="3.91" rx="1.96"/></g><g id="plant_color1" data-name="plant color1"><path class="cls-8" d="M670.25,314.55c-.72-11.17-1.89-22.34-3.68-33.52a211.51,211.51,0,0,0-7.84-33.51,2.16,2.16,0,0,0-1.61-1.36,2.42,2.42,0,0,0-2.88,1.36A211.46,211.46,0,0,0,646.41,281c-1.79,11.18-3,22.35-3.68,33.52L646,370.12h23.39Z"/></g><g id="plant_color2" data-name="plant color2"><path class="cls-4" d="M656.12,370.12c0-.36.84-.16.9-.52,1.5-9.8,3.76-19.5,6.14-29.18,2.52-10,5.42-20,8.83-29.92a218.15,218.15,0,0,1,12.28-29.45,2.1,2.1,0,0,1,2.57-.85,1.7,1.7,0,0,1,1.16,1.35,205.32,205.32,0,0,1,.75,31.21c-.44,10.31-1.38,20.55-2.7,30.75-1.19,8.81-2.48,17.62-4.33,26.35"/><path class="cls-4" d="M631,370.12c-.4-1.25-.76-2.5-1.09-3.76-2.35-10.06-3.85-20.22-5.22-30.41s-2.27-20.43-2.7-30.75a204.1,204.1,0,0,1,.75-31.21,1.87,1.87,0,0,1,2.12-1.47,2,2,0,0,1,1.61,1A217.67,217.67,0,0,1,638.74,303c1.34,3.87,2.59,7.76,3.78,11.66q2.76,9.09,5.05,18.26c2.47,10,4.81,20.09,6.31,30.26a68,68,0,0,1,.48,7"/></g><g id="plant_stroke" data-name="plant stroke"><path class="cls-9" d="M655.92,370.12c1.5-9.8,10.62-45.73,16.07-59.62a218.15,218.15,0,0,1,12.28-29.45,2.1,2.1,0,0,1,2.57-.85,1.7,1.7,0,0,1,1.16,1.35,205.32,205.32,0,0,1,.75,31.21c-.44,10.31-1.38,20.55-2.7,30.75-1.19,8.81-2.48,17.62-4.33,26.35"/><path class="cls-9" d="M670.25,315c-.72-11.17-1.89-22.34-3.68-33.52A211.88,211.88,0,0,0,658.73,248a2.16,2.16,0,0,0-1.61-1.35,2.41,2.41,0,0,0-2.88,1.35,211.84,211.84,0,0,0-7.83,33.52c-1.79,11.18-3,22.35-3.68,33.52"/><path class="cls-9" d="M631,370.12c-.4-1.25-.76-2.5-1.09-3.76-2.35-10.06-3.85-20.22-5.22-30.41s-2.27-20.43-2.7-30.75a204.1,204.1,0,0,1,.75-31.21,1.87,1.87,0,0,1,2.12-1.47,2,2,0,0,1,1.61,1A217.67,217.67,0,0,1,638.74,303c3.41,9.91,6.31,19.89,8.83,29.92s4.81,20.09,6.31,30.26a68,68,0,0,1,.48,7"/><line class="cls-9" x1="674.98" y1="339.99" x2="669.42" y2="369.25"/><line class="cls-9" x1="635.74" y1="332.35" x2="642.91" y2="370.12"/><line class="cls-9" x1="655.92" y1="292.84" x2="655.92" y2="370.12"/><path class="cls-9" d="M623.73,370.7H687a2,2,0,0,1,2,2v20.48a22.38,22.38,0,0,1-22.38,22.38H644.11a22.38,22.38,0,0,1-22.38-22.38V372.7A2,2,0,0,1,623.73,370.7Z"/></g><g id="sheild_shadow" data-name="sheild shadow"><path class="cls-10" d="M200.57,414c-56.42,0-138-94.06-138-264.15V139.58l9.1-2.84s34.46-5,64.57-21.8c22.17-12.34,55.68-43,56-43.27l7.92-7.56L213.22,64l-4.37,7c.32.26,32.82,26.17,57.07,41.47,27,17,62.1,24.55,62.45,24.62l10.22,2.15v10.62c0,97.57-25.35,159.94-46.61,195.09C266.22,387.53,231.19,414,200.57,414Z"/><rect x="174.13" y="416.51" width="67.53" height="3.91" rx="1.96"/></g><g id="sheild"><path class="cls-10" d="M214.36,414c-56.42,0-138-94.06-138-264.15V138.33l11.22-1.43c.31,0,32.34-4.35,62.45-21.11,22.17-12.34,55.68-43.81,56-44.12l8-7.56,8.6,6.87c.32.26,32.82,26.17,57.07,41.47,27,17,62.1,24.55,62.45,24.62l10.22,2.15v10.62c0,97.57-25.35,159.94-46.61,195.09C280,387.53,245,414,214.36,414Z"/></g><g id="sheild_stroke_shadow" data-name="sheild stroke shadow"><path d="M192.47,72.22l-2.23,2h13l2.17-2Z"/><path d="M180.26,82.91l-2.36,2h13.33l2.3-2Z"/><path d="M167.33,93.61l-2.52,2h13.65l2.46-2Z"/><path d="M153.34,104.3c-.93.68-1.86,1.35-2.79,2h14c.91-.65,1.82-1.32,2.73-2Z"/><path d="M151.37,115H137c-1.25.69-2.52,1.35-3.79,2h14.61l2.23-1.21Z"/><path d="M111.86,125.69c-2.22.72-4.42,1.39-6.58,2h18.11q2.64-.93,5.37-2Z"/><path d="M87.55,136.9c.06,0,1.21-.16,3.23-.51H67l-2.8,2H76.33v-.06Z"/><polygon points="63.16 147.08 63.33 149.08 76.33 149.08 76.33 147.08 63.16 147.08"/><path d="M63.45,157.78c0,.67,0,1.33,0,2H76.43c0-.67,0-1.33,0-2Z"/><path d="M63.74,168.47c0,.67,0,1.34.07,2H76.75c0-.66,0-1.33-.08-2Z"/><path d="M64.23,179.17c0,.66.07,1.33.11,2H77.28c0-.67-.07-1.34-.11-2Z"/><path d="M65,189.86c.06.67.12,1.33.17,2H78.07c0-.67-.11-1.33-.17-2Z"/><path d="M65.94,200.56c.07.66.13,1.33.2,2H79.08c-.07-.67-.13-1.34-.2-2Z"/><path d="M67.17,211.25c.08.67.18,1.33.26,2H80.37c-.08-.67-.18-1.33-.26-2Z"/><path d="M68.66,221.94c.11.67.2,1.34.3,2H81.9l-.3-2Z"/><path d="M70.43,232.64l.36,2H83.73l-.36-2Z"/><path d="M72.48,243.33l.42,2H85.84l-.42-2Z"/><path d="M74.85,254c.15.66.3,1.34.46,2H88.25c-.16-.66-.31-1.34-.46-2Z"/><path d="M77.52,264.72l.54,2H91l-.54-2Z"/><path d="M80.54,275.42c.2.67.41,1.33.61,2H94.09c-.2-.67-.41-1.33-.61-2Z"/><path d="M83.92,286.11l.69,2H97.55l-.69-2Z"/><path d="M87.71,296.81l.75,2H101.4l-.75-2Z"/><path d="M91.92,307.5l.84,2H105.7l-.84-2Z"/><path d="M96.6,318.2c.31.67.63,1.33.94,2h12.94c-.31-.67-.63-1.33-.94-2Z"/><path d="M101.82,328.89c.34.67.69,1.34,1,2H115.8c-.35-.66-.7-1.33-1-2Z"/><path d="M107.64,339.59l1.14,2h12.94l-1.14-2Z"/><path d="M114.14,350.28c.43.68.87,1.34,1.31,2h12.94c-.44-.66-.88-1.32-1.31-2Z"/><path d="M121.48,361c.49.67,1,1.33,1.49,2h12.94c-.5-.67-1-1.33-1.49-2Z"/><path d="M129.86,371.67c.57.68,1.14,1.34,1.72,2h12.94c-.58-.66-1.15-1.32-1.72-2Z"/><path d="M139.63,382.36c.67.68,1.34,1.35,2,2h12.94c-.67-.65-1.34-1.32-2-2Z"/><path d="M151.44,393.06c.84.68,1.69,1.35,2.53,2h12.94c-.84-.65-1.69-1.32-2.53-2Z"/><path d="M167,403.75c1.22.7,2.45,1.38,3.67,2h12.94c-1.22-.62-2.45-1.3-3.67-2Z"/></g><g id="sheild_color2" data-name="sheild color2"><path class="cls-11" d="M339.57,149.84C339.57,317,262.1,401,214.36,401,169,401,89.14,317.47,89.14,149.84c0,0,34.22-4.36,67-22.62,23.82-13.26,58.57-46,58.57-46s33.08,26.42,58.24,42.3C302.31,142.05,339.57,149.84,339.57,149.84Z"/></g><g id="feedly"><path class="cls-12" d="M296.29,228.08,232.44,163a17.16,17.16,0,0,0-24.52,0l-63.86,65.08a18,18,0,0,0,0,25l42.68,43.49a29.59,29.59,0,0,0,21.13,8.92h24.62a29.59,29.59,0,0,0,21.13-8.92l42.67-43.49A17.94,17.94,0,0,0,296.29,228.08Z"/><path class="cls-13" d="M187.6,246.77a8.51,8.51,0,0,1-12.19,0,8.9,8.9,0,0,1,0-12.43l38.13-38.86a8.51,8.51,0,0,1,12.19,0,8.9,8.9,0,0,1,0,12.43Z"/><ellipse class="cls-14" cx="220.01" cy="279.8" rx="8.62" ry="8.79"/><path class="cls-13" d="M226.25,246.64l-19.39,19.75a8.5,8.5,0,0,1-12.2,0,8.9,8.9,0,0,1,0-12.43l19.39-19.76a8.52,8.52,0,0,1,12.2,0A8.92,8.92,0,0,1,226.25,246.64Z"/></g><g id="sheild_stroke" data-name="sheild stroke"><path class="cls-9" d="M214.36,414c-56.42,0-138-94.06-138-264.15V138.33l11.22-1.43c.31,0,32.34-4.35,62.45-21.11,22.17-12.34,55.68-43.81,56-44.12l8-7.56,8.6,6.87c.32.26,32.82,26.17,57.07,41.47,27,17,62.1,24.55,62.45,24.62l10.22,2.15v10.62c0,97.57-25.35,159.94-46.61,195.09C280,387.53,245,414,214.36,414Z"/><path class="cls-9" d="M339.57,149.84C339.57,317,262.1,401,214.36,401,169,401,89.14,317.47,89.14,149.84c0,0,34.22-4.36,67-22.62,23.82-13.26,58.57-46,58.57-46s33.08,26.42,58.24,42.3C302.31,142.05,339.57,149.84,339.57,149.84Z"/><path class="cls-15" d="M296.29,228.08,232.44,163a17.16,17.16,0,0,0-24.52,0l-63.86,65.08a18,18,0,0,0,0,25l42.68,43.49a29.59,29.59,0,0,0,21.13,8.92h24.62a29.59,29.59,0,0,0,21.13-8.92l42.67-43.49A17.94,17.94,0,0,0,296.29,228.08Z"/><path class="cls-15" d="M187.6,246.77a8.51,8.51,0,0,1-12.19,0,8.9,8.9,0,0,1,0-12.43l38.13-38.86a8.51,8.51,0,0,1,12.19,0,8.9,8.9,0,0,1,0,12.43Z"/><ellipse class="cls-16" cx="220.01" cy="279.8" rx="8.62" ry="8.79"/><path class="cls-15" d="M226.25,246.64l-19.39,19.75a8.5,8.5,0,0,1-12.2,0,8.9,8.9,0,0,1,0-12.43l19.39-19.76a8.52,8.52,0,0,1,12.2,0A8.92,8.92,0,0,1,226.25,246.64Z"/><path class="cls-16" d="M214.07,64.11H200.14l-7.92,7.56c-.33.31-33.84,30.93-56,43.27-30.11,16.76-73.67,23.48-73.67,23.48v11.42c0,170.09,81.61,264.15,138,264.15h16.09"/></g><g id="shadow_body" data-name="shadow body"><path d="M602.81,430.46c0,4.73,16.06,12.75-71.94,12.75-28.2,0-90.22-7.76-127.84-10.32-79.76-5.42-102.09-5-109.7-17.39-.46-.75,41.06-.6,129.05-.6,28.76,0,55,3.61,81.31,5.34C557.91,423.79,602.81,427.28,602.81,430.46Z"/></g><g id="stroke_floor" data-name="stroke floor"><line class="cls-9" x1="46.67" y1="415.5" x2="239.71" y2="415.5"/><line class="cls-9" x1="276.43" y1="415.5" x2="410.95" y2="415.5"/><line class="cls-9" x1="444.45" y1="415.5" x2="687.73" y2="415.5"/></g><g id="article3"><rect class="cls-2" x="58.15" y="321.3" width="117.49" height="56.5" rx="3.86"/><line class="cls-17" x1="134.19" y1="337.58" x2="161" y2="337.58"/><line class="cls-17" x1="89.14" y1="337.58" x2="123.48" y2="337.58"/><line class="cls-17" x1="99.49" y1="349.57" x2="157.68" y2="349.57"/><line class="cls-17" x1="69.82" y1="349.57" x2="85.77" y2="349.57"/><line class="cls-17" x1="123.48" y1="361.56" x2="165.1" y2="361.56"/><line class="cls-17" x1="69.82" y1="361.56" x2="109.77" y2="361.56"/><path class="cls-4" d="M78.19,332.64c-2.1-1.21-2.28-2.56-2.28-2.56s-.18,1.35-2.28,2.56a9,9,0,0,1-3.81.73c0,7.07,6.09,10.2,6.09,10.2S82,340.44,82,333.37A9,9,0,0,1,78.19,332.64Z"/></g><g id="article2"><rect class="cls-2" x="407.53" y="123.52" width="104.5" height="58.84" rx="3.86"/><path class="cls-4" d="M424.77,131c-2.1-1.2-2.28-2.56-2.28-2.56s-.18,1.36-2.28,2.56a9,9,0,0,1-3.81.73c0,7.07,6.09,10.2,6.09,10.2s6.09-3.13,6.09-10.2A9,9,0,0,1,424.77,131Z"/><line class="cls-18" x1="475.16" y1="136.27" x2="499.01" y2="136.27"/><line class="cls-18" x1="436.06" y1="136.27" x2="465.64" y2="136.27"/><line class="cls-18" x1="417.91" y1="146.94" x2="458.19" y2="146.94"/><line class="cls-18" x1="449.19" y1="157.61" x2="489.44" y2="157.61"/><line class="cls-18" x1="417.91" y1="157.61" x2="441.77" y2="157.61"/><line class="cls-18" x1="475.16" y1="168.67" x2="499.01" y2="168.67"/><line class="cls-18" x1="417.91" y1="168.67" x2="465.64" y2="168.67"/><line class="cls-18" x1="465.66" y1="146.94" x2="482.31" y2="146.94"/><line class="cls-18" x1="488.66" y1="146.94" x2="499.01" y2="146.94"/></g><g id="article1"><rect class="cls-19" x="331.82" y="54.95" width="90.67" height="44.83" rx="3.86"/></g><g id="article1_stroke" data-name="article1 stroke"><rect class="cls-20" x="331.82" y="54.95" width="90.67" height="44.83" rx="3.86"/></g><g id="article_text" data-name="article text"><line class="cls-18" x1="392.15" y1="67.86" x2="413.42" y2="67.86"/><line class="cls-18" x1="358.06" y1="67.86" x2="383.65" y2="67.86"/><line class="cls-18" x1="364.62" y1="77.38" x2="408.4" y2="77.38"/><line class="cls-18" x1="341.07" y1="77.38" x2="353.73" y2="77.38"/><line class="cls-18" x1="381.94" y1="86.9" x2="405.06" y2="86.9"/><line class="cls-18" x1="341.07" y1="86.9" x2="372.77" y2="86.9"/></g><g id="article1_shield" data-name="article1 shield"><path class="cls-4" d="M348.58,61.78c-2.11-1.2-2.29-2.56-2.29-2.56s-.17,1.36-2.28,2.56a9,9,0,0,1-3.81.73c0,7.07,6.09,10.2,6.09,10.2s6.1-3.13,6.1-10.2A9,9,0,0,1,348.58,61.78Z"/></g><g id="clothing"><path class="cls-7" d="M438.14,317.08s1.44-2.95-1.41-3.9c-.25-.08-8,1-14.5,1.21a50.29,50.29,0,0,1-8.82-.58l3.43-7.81-34.61-5.69s-5.89-33.47-10.72-48.08c-5-15.17-16.57-28.74-32.65-31.19a5.71,5.71,0,0,0-2.2.09L314,214.87c-34.47,3.52-48.47,21.82-42.58,61.1l8.77,46.82,14.29,59.46s21.37-17.68,42.33-29.5c7.83-4.42,33.76-12.48,33.76-12.48L393,334.12l41.92-11.31s6-1.42,7.38-3.11C443.07,318.72,441.58,316.86,438.14,317.08Z"/></g><g id="pants"><path class="cls-21" d="M501.56,323.81c-4.58-7.14-12.9-15-21.27-13.62,0,0-27,6.77-56.49,15.24-18.16,4.92-41.66,11.34-62.74,17.21,0,0-26.22,10.49-34.35,15.19-8.94,5.16-33.33,24.38-33.33,24.38-1,21.59,15.11,38.82,33.75,38.82h.51s35.87,3.9,70.45-16.39c17.55-10.3,39.3-21.94,55.25-30.29a121.38,121.38,0,0,0,18.05,15.12c37.52,26.2,38.25,27,38.25,27a87.18,87.18,0,0,0,23.62-9.12s11.63-2.92,13.63-7.54C546.89,399.8,512.9,341.45,501.56,323.81Z"/></g><g id="shadow_clothing" data-name="shadow clothing"><path class="cls-21" d="M377.21,317.52a11.2,11.2,0,0,1-5.57-8.37c-1.35-11-3.87-29-7.33-42.67,3.45,15-2.86,15.69-3.58,21l5.84,31.2Z"/><polygon class="cls-21" points="350.57 287.53 361.31 296.48 361.25 285.3 350.57 287.53"/><path class="cls-21" d="M307.5,338.18A398.78,398.78,0,0,1,284.72,294l-.44.15s17.83,41.62,23.7,51.31c.67,1.11,1.41,2.4,2.18,3.78a15.67,15.67,0,0,0,21,6.22l22-9.59-.4-.7-20.84,5.73S316,352.33,307.5,338.18Z"/></g><g id="shadow_clothing_2" data-name="shadow clothing 2"><path class="cls-11" d="M476.37,326l56.89,81.39c-1.08.62-2.17,1.21-3.25,1.76,2.78-.81,6.91-2.19,9.2-3.82,0,0-37.81-52.46-49.15-70.1-4.58-7.14-16-22.31-24.38-21l-9.14,2.71A22.94,22.94,0,0,1,476.37,326Z"/><path class="cls-11" d="M444.54,363,368,409.57a78.71,78.71,0,0,1-34.8,11.22,9.79,9.79,0,0,0,2,.23s28.28,3.9,62.86-16.39c17.55-10.3,39.3-21.94,55.25-30.29C446.69,367.44,444.54,363,444.54,363Z"/><path class="cls-11" d="M351.36,398.58c42.67-8.36,93.09-47.66,93.09-47.66,8.37-1.35,19.36,16.81,32.61,26.2L519,413.28a76.26,76.26,0,0,1-9.37,3.18s-.73-.8-38.25-27C450.14,374.63,444.54,363,444.54,363L368,409.57A78.66,78.66,0,0,1,327.13,421h0c-18.64,0-34.74-17.23-33.75-38.82,0,0,3.2-5.21,12.14-10.38C305.52,371.83,300.81,408.47,351.36,398.58Z"/></g><g id="shoes"><path id="shoes-2" data-name="shoes" class="cls-22" d="M602,427.08a3.83,3.83,0,0,0-2.23-1.83c-3.82-1.06-28.78-10.58-36.25-13.43L559.81,407a2.79,2.79,0,0,0-2.43-.64,20.07,20.07,0,0,0-4.9,1.51c-2.25,1.4-1.62,3.17,0,5.3.35.47,1.07,1.35,1.73,2.15a44.46,44.46,0,0,1-9,1.91c-3,.35-4,.49-4,.49l-9.4,13.8a5,5,0,0,0,5,5h59.8C601.33,436.5,604.56,431.21,602,427.08Z"/><path id="shoes-3" data-name="shoes" class="cls-22" d="M586.17,433.79A3.84,3.84,0,0,0,584,432c-3.71-1-27.36-10-35.57-13.17l-3.87-5a2.79,2.79,0,0,0-2.43-.65,19.93,19.93,0,0,0-4.9,1.52c-2.25,1.4-1.62,3.16,0,5.29.31.43.94,1.2,1.54,1.93a44,44,0,0,1-9.42,2c-3,.34-13.44.78-13.44.78v13.51a5,5,0,0,0,5,5h59.81C585.46,443.21,588.69,437.92,586.17,433.79Z"/></g><g id="laptop"><path class="cls-14" d="M480.29,310.19l-72.46,19.65,19.32-58.2c1.54-4.25,4.75-5.09,7.78-5.68l68.76-15.2c2.39-.49,3.83.84,3.4,3.87-.31,2.19-1.19,4.85-3.53,10.18L485,306.21A7.17,7.17,0,0,1,480.29,310.19Z"/></g><g id="shadow_skin" data-name="shadow skin"><path class="cls-5" d="M419.48,312c3.56-11,8.09-24.89,12.07-37.6a6.83,6.83,0,0,1,5.14-5.21l71.12-15.81s-.34-3.44-3.12-2.89C495,252.42,458,260.93,439.12,265c-10.56,2.29-10.15,3.54-10.82,4.38-1.69,2.12-20.47,60.42-20.47,60.42l72.46-19.65a7.17,7.17,0,0,0,4.67-4l1.19-2.64c-13.65,4.15-45.71,11.33-45.71,11.33,1.08-5-4.26-5.44-9.44-4.26C427.61,311.41,421.8,311.39,419.48,312Z"/></g><g id="skin"><path class="cls-14" d="M374,175c-4.2-.57-15.21-11-15.21-11-16.63,23.06-36.61,14.5-36.61,14.5l-5.42-.84a9,9,0,0,0-4.78,6.92,8.85,8.85,0,0,0,5.38,9.4c-.65,5.16-1.95,13.79-3.68,17-1.11,2.08-6.69,6.66-6.69,6.66s6.65,12,19.56,18c3.68,1.71,19.7,3.16,12.09-11.43l1.42-6.28c13.74,1.65,21.56-7.56,28.24-24.22,1.87-4.66,4.59-14.06,5.88-18.73Z"/><path class="cls-14" d="M531.92,408.47l4.91,6.44s2-2.66,6.32-1.77c1.82.38,4.64,3.81,4.64,3.81s4.93-.11,6.05-2l-2.75-4.28.77-2.84-5.34-6.13Z"/><path class="cls-14" d="M511.89,415.93l4.26,8.6s21.47-.78,22-2.54l-2.28-4.15.47-2.93-5.51-6.07Z"/><path class="cls-14" d="M438.14,317.08s1.44-2.95-1.41-3.9c-.25-.08-8,1-14.5,1.21a49.77,49.77,0,0,1-9.29-.66l1.26-4.58c-4.78.47-15.9,9.58-15.9,9.58h0l-44.18-.44s-3.33,9.09-3.55,12.28c-.25,3.69,3.56,14.23,3.56,14.23L393,334.12l41.92-11.31s6-1.42,7.38-3.11C443.07,318.72,441.58,316.86,438.14,317.08Z"/><path class="cls-14" d="M404.24,304.06,416,306l-1,3.15-7.67,3.3-9.05,6.28-4.31,0s-2.35-6.43,2.53-10.25A70.87,70.87,0,0,1,404.24,304.06Z"/></g><g id="shadow_skin-2" data-name="shadow skin"><path class="cls-5" d="M337.92,217.52c-6.65-1.35-11-8.6-12.51-12l-1.68-5a21.67,21.67,0,0,0,.49,7.7c3,9.5,8.59,11.82,13.27,13.51a.51.51,0,0,0,.69-.49c0-.64.35-1.62,1.92-2.92l.11-.46C339.46,217.8,338.7,217.68,337.92,217.52Z"/></g><g id="stroke_color1" data-name="stroke color1"><path class="cls-23" d="M347.19,318.71s-6.65,14.55.92,27.74"/><path class="cls-23" d="M395.86,302.87a19.4,19.4,0,0,0-8.4,15.44"/></g><g id="eyes"><rect x="360.41" y="191.93" width="4.07" height="7.33" rx="2.03" transform="translate(635.75 503.7) rotate(-159.93)"/><rect x="349.35" y="187.29" width="4.07" height="7.33" rx="2.03" transform="translate(590.17 511.75) rotate(-155.18)"/></g><g id="hair"><path class="cls-11" d="M317.13,177.62l5.42.84s20,8.56,36.6-14.5c0,0,11,10.43,15.22,11l.18,0c-1.29,4.67-4,14.07-5.88,18.73-6.69,16.66-14.51,25.87-28.24,24.22l-.74,3.26a35.85,35.85,0,0,1,17.56,8.7c11.61-3.67,23.76-15.8,24.27-52.79a21.91,21.91,0,0,0-.17-2.94,13.3,13.3,0,0,0,5.64-4.33c4.75-6.25,4.27-16.37-10.66-22.08-10.72-4.1-21.25-11.28-38.5-12.2-32.27-1.71-37.61,25-38.21,36.9h0a18.17,18.17,0,0,1-7.41,14.4c-4.59,3.49-12,7.32-12,19.57a17.61,17.61,0,0,0,8.49,15.67c5.73-3.29,12.8-5.49,21.21-6.71a23.33,23.33,0,0,0,4.11-4.42c1.72-3.23,3-11.86,3.68-17a8.85,8.85,0,0,1-5.38-9.4A9,9,0,0,1,317.13,177.62Z"/></g><g id="stroke_character" data-name="stroke character"><path class="cls-9" d="M338.86,221c16.08,2.45,26.31,14.29,31.33,29.46,4.83,14.61,12,49.81,12,49.81L415.56,306"/><ellipse class="cls-9" cx="465.68" cy="290.48" rx="6.25" ry="3.66" transform="translate(33.42 628.68) rotate(-69.99)"/><line class="cls-9" x1="420.13" y1="310.04" x2="418.53" y2="314.86"/><path class="cls-9" d="M413.34,314.35l13.81-42.71c1.54-4.25,4.75-5.09,7.78-5.68l68.76-15.2c2.39-.49,4.3.6,3.87,3.63-.31,2.19-1.66,5.09-4,10.42L485,306.21a7.17,7.17,0,0,1-4.67,4L437.82,322"/><line class="cls-9" x1="431.49" y1="274.86" x2="424.19" y2="298.01"/><path class="cls-9" d="M340.4,218.07c-.81-.14-1.64-.32-2.48-.55-7-1.88-12.65-9.6-13.7-15.22"/><path class="cls-9" d="M321.94,176.76a8.92,8.92,0,0,0-2.23,17.69"/><polyline class="cls-9" points="357.5 194.45 356.62 202.3 351.85 200.82"/><line class="cls-9" x1="551.86" y1="408.33" x2="546.52" y2="401.66"/><path class="cls-24" d="M555.53,417s-2.36-2.81-3.09-3.79c-1.58-2.13-2.21-3.9,0-5.3a20.07,20.07,0,0,1,4.9-1.51,2.79,2.79,0,0,1,2.43.64l6.08,7.83"/><path class="cls-9" d="M555.53,417s-2.36-2.81-3.09-3.79c-1.58-2.13-2.21-3.9,0-5.3a20.07,20.07,0,0,1,4.9-1.51,2.79,2.79,0,0,1,2.43.64l6.08,5.83"/><line class="cls-9" x1="578.09" y1="429.87" x2="593.39" y2="429.87"/><path class="cls-9" d="M533.16,407.79c5.33-2,12.5-5.15,13.73-8,0,0-34-58.35-45.33-76-4.58-7.14-12.9-15-21.27-13.62"/><path class="cls-9" d="M586.94,436.41h9c4.84,0,8.63-5.2,6.11-9.33a5.19,5.19,0,0,0-2.79-1.92c-4.5-1.25-33.36-12.34-33.36-12.34"/><path class="cls-9" d="M553.64,415.2s2.85.61-5.57,1.75"/><path class="cls-9" d="M538.43,422.13a57.4,57.4,0,0,1-9.17,1.8c-3,.34-13.44.78-13.44.78v13.51a5,5,0,0,0,5,5h59.81c4.83,0,8.06-5.29,5.54-9.42A3.84,3.84,0,0,0,584,432c-3.32-.92-23.47-8.56-33.36-12.33"/><line class="cls-9" x1="516.59" y1="424.53" x2="511.89" y2="416.66"/><line class="cls-9" x1="536.38" y1="414.91" x2="531.22" y2="408.47"/><path class="cls-24" d="M540.22,423.75s-2.35-2.81-3.08-3.79c-1.58-2.13-2.21-3.89,0-5.29a19.93,19.93,0,0,1,4.9-1.52,2.79,2.79,0,0,1,2.43.65l6.08,7.83"/><path class="cls-9" d="M540.22,423.75s-2.35-2.81-3.08-3.79c-1.58-2.13-2.21-3.89,0-5.29a19.93,19.93,0,0,1,4.9-1.52,2.79,2.79,0,0,1,2.43.65l6.08,5.83"/><line class="cls-9" x1="519.01" y1="436.68" x2="578.09" y2="436.68"/><path class="cls-9" d="M293.38,382.21c-1,21.59,15.11,38.82,33.75,38.82h0A78.66,78.66,0,0,0,368,409.57L444.54,363s5.6,11.64,26.85,26.47c37.52,26.2,38.25,27,38.25,27a87.18,87.18,0,0,0,23.62-9.12L476.37,326a22.08,22.08,0,0,0-21.46-8.7"/><line class="cls-9" x1="450.92" y1="359.46" x2="444.54" y2="362.99"/><path class="cls-9" d="M364.39,342.32c-4.2,1.48-9.7,3.27-19.1,6.85-29.52,11.24-51.91,33-51.91,33-3.26-15.82-8.73-39.16-11.32-51-7.8-35.66-10-45.48-11.17-60.75-2.33-29.65,6.05-39.24,15.35-45.7,12.25-8.52,23.57-9,23.57-9"/><path class="cls-9" d="M357.49,249.2c1.1,8.76,13.6,19.6,3.77,36.1-.39.63,1.39,15.31,4.65,32.72"/><path class="cls-9" d="M317.11,193.67a28.64,28.64,0,0,1-2.13,15c-3.25,7.6-7.16,8.13-7.16,8.13s8.43,20.31,26.1,19.63c6.52-.25,8.75-6.43,4.55-12.92"/><path class="cls-9" d="M346.81,230a19.35,19.35,0,0,0-3.23-7.9"/><path class="cls-9" d="M309,230c5.52,7.11,14.67,14.35,28.28,12a12.75,12.75,0,0,0,7.85-4.75"/><path class="cls-9" d="M340.1,218.36c-2.79,5-3.26,11.59-3.26,11.59"/><path class="cls-9" d="M403,304.06s-8.37,1-10,14.25"/><path class="cls-9" d="M364,186s2.8-.86,3.71,1.44"/><path class="cls-9" d="M352.26,181.29s2.76-1.49,4.75,1.84"/><path class="cls-9" d="M337.31,198s3.34,8.94,11.61,6.78"/><path class="cls-9" d="M415.05,309c-4.56,1.1-13.25,6.63-16.15,8.56a5.53,5.53,0,0,1-2.6.91c-3.31.28-9.83.18-11.42.19l-50.46-.62s-17.37-45.61-20.36-61.73"/><path class="cls-9" d="M435.44,318c2.05-.52,2.91-1.48,2.9-2.63,0-1.54-1.72-2.1-3.39-1.92-1.16.13-16.87,2.38-21.61.88"/><path class="cls-9" d="M277.49,275.5c4.66,13.86,17.75,39.55,28.06,58.4,4.21,7.68,11.28,15.83,22.32,16.91a25.22,25.22,0,0,0,9.22-.91L403,331.6s30.89-8.41,32-8.81"/><path class="cls-9" d="M353.37,318.31s-6.77,10.9.74,26.49"/><line class="cls-9" x1="335.67" y1="318.07" x2="329.21" y2="318.08"/><path class="cls-9" d="M424.55,319.86a43.88,43.88,0,0,0,9.87-1.58c1.67-.47,3.23-.71,4.5-1.12,1-.33,3.41-.58,3.86,1.21.27,1.09-.37,2.13-2.9,3.06L435,322.79"/><path class="cls-9" d="M335.23,421s28.28,3.9,62.86-16.39c17.55-10.3,39.3-21.94,55.25-30.29"/><path class="cls-9" d="M321.94,176.76l.61,1.7s20,8.56,36.6-14.5c0,0,11,10.43,15.22,11l.18,0c-1.29,4.67-4,14.07-5.88,18.73-6.69,16.66-14.51,25.87-28.24,24.22"/><path class="cls-9" d="M357.82,229.71c11.43-3.89,23.2-16.22,23.7-52.61a21.91,21.91,0,0,0-.17-2.94,13.3,13.3,0,0,0,5.64-4.33c4.75-6.25,4.27-16.37-10.66-22.08-10.72-4.1-21.25-11.28-38.5-12.2-32.27-1.71-37.61,25-38.21,36.9h0a18.17,18.17,0,0,1-7.41,14.4c-4.59,3.49-12,7.32-12,19.57a17.61,17.61,0,0,0,8.49,15.67"/></g></svg>